<svg width="50" height="50" viewBox="0 0 50 50" fill="none" xmlns="http://www.w3.org/2000/svg">
<path d="M18.7708 34.9804L22.5209 31.2369L15.0203 23.7499L11.2699 27.4937L18.7708 34.9804V34.9804ZM18.7708 12.5193L7.51983 23.7499L11.2699 27.4937L15.0203 23.7499L22.5209 16.2628L18.7708 12.5193V12.5193ZM39.9999 0H10.0001C4.47705 0 0 4.47705 0 10.0001V39.9999C0 45.523 4.47705 50 10.0001 50H39.9999C45.5226 50 50 45.523 50 39.9999V10.0001C50 4.47705 45.523 0 39.9999 0V0ZM45.0001 37.5C45.0001 41.642 41.6424 45.0001 37.5 45.0001H12.5C8.358 45.0001 4.99985 41.6424 4.99985 37.5V12.5C4.99985 8.35764 8.35764 4.99985 12.5 4.99985H37.5C41.642 4.99985 45.0001 8.35764 45.0001 12.5V37.5ZM27.4788 31.2369L31.2292 34.9804L38.7301 27.4937L34.9797 23.7499L27.4788 31.2369ZM27.4788 16.2628L34.9797 23.7502L38.7301 27.4941L42.4805 23.7502L31.2292 12.5193L27.4788 16.2628V16.2628Z" fill="black"/>
</svg>
