<svg width="50" height="50" viewBox="0 0 50 50" fill="none" xmlns="http://www.w3.org/2000/svg">
<g filter="url(#filter0_d)">
<path d="M44.7672 22.018L37.2416 13.3275C36.703 12.706 35.9874 12.3638 35.2262 12.3638C34.4663 12.3638 33.7513 12.7051 33.2124 13.3254C32.1021 14.6062 32.1015 16.6926 33.2118 17.9761L38.7233 24.342L33.2121 30.7034C32.6732 31.3255 32.3769 32.1525 32.3774 33.0319C32.3779 33.9096 32.6745 34.7344 33.2124 35.353C33.7507 35.9742 34.4661 36.3161 35.227 36.3161C35.9885 36.3161 36.704 35.9742 37.2417 35.353L44.7673 26.6666C45.8775 25.3849 45.8775 23.2994 44.7672 22.018ZM44.0427 25.8314L36.5171 34.5179C36.1726 34.9157 35.7144 35.1347 35.227 35.1347C34.7397 35.1347 34.2814 34.9157 33.9365 34.5172C33.592 34.1209 33.4025 33.5935 33.4019 33.0314C33.4014 32.4684 33.5914 31.9385 33.9367 31.5399L39.8095 24.7605C40.0096 24.5296 40.0096 24.1555 39.8098 23.925L33.937 17.1415C33.2258 16.3191 33.2255 14.9821 33.9362 14.1624C34.2814 13.7652 34.7397 13.5464 35.2263 13.5464C35.7136 13.5464 36.1721 13.7657 36.5171 14.1638L44.0427 22.8543C44.7537 23.6748 44.7537 25.0103 44.0427 25.8314Z" fill="black" stroke="black"/>
<path d="M17.2226 33.0323C17.2231 32.1532 16.927 31.3266 16.3879 30.7038L10.8769 24.3423L16.3889 17.9758C17.4984 16.6924 17.4977 14.6063 16.3866 13.3245C15.8482 12.7052 15.1334 12.3641 14.3737 12.3641C13.6126 12.3641 12.8967 12.7063 12.3581 13.3278L4.83268 22.0175C3.7224 23.2994 3.7224 25.3852 4.83295 26.667L12.3578 35.3525C12.896 35.9743 13.6118 36.3165 14.373 36.3165C15.1342 36.3165 15.8495 35.9749 16.3864 35.3546C16.925 34.7351 17.2221 33.9103 17.2226 33.0323ZM15.6623 34.5182C15.3184 34.9157 14.8604 35.1344 14.373 35.1344C13.8856 35.1344 13.4271 34.9154 13.0824 34.5171L5.55755 25.8314C4.84627 25.0105 4.84627 23.6745 5.55755 22.8535L13.0827 14.1635C13.4279 13.7655 13.8864 13.5462 14.3737 13.5462C14.8604 13.5462 15.3183 13.7646 15.6628 14.1609C16.3743 14.9815 16.3746 16.3185 15.6638 17.1406L9.79041 23.9245C9.59064 24.155 9.59064 24.529 9.79068 24.7599L15.6635 31.539C16.0088 31.9379 16.1988 32.4678 16.1983 33.0309C16.1976 33.5932 16.0078 34.121 15.6623 34.5182Z" fill="black" stroke="black"/>
<path d="M31.9324 2.20808C31.6111 2.07004 31.276 2 30.9355 2C29.7504 2 28.6786 2.86172 28.268 4.14376L15.9923 42.2527C15.7259 43.0763 15.7538 43.9703 16.0715 44.7706C16.3888 45.5699 16.9561 46.1776 17.6676 46.4805C17.9888 46.6185 18.3238 46.6885 18.6632 46.6885C19.847 46.6885 20.9204 45.8272 21.3348 44.5445L33.612 6.43112C34.1565 4.73003 33.4025 2.83545 31.9324 2.20808ZM32.651 6.0203L20.3745 44.1319C20.1089 44.9537 19.4212 45.5061 18.6631 45.5061C18.4462 45.5061 18.2315 45.461 18.0241 45.3719C17.5687 45.1776 17.206 44.789 17.003 44.2778C16.7996 43.7658 16.7816 43.1933 16.9527 42.6651L29.2287 4.5545C29.4914 3.73356 30.1774 3.18204 30.9355 3.18204C31.1534 3.18204 31.368 3.22698 31.5755 3.31623C32.5173 3.71788 32.9998 4.9316 32.651 6.0203Z" fill="black" stroke="black"/>
</g>
<defs>
<filter id="filter0_d" x="3.5" y="1.5" width="43.6" height="46.6885" filterUnits="userSpaceOnUse" color-interpolation-filters="sRGB">
<feFlood flood-opacity="0" result="BackgroundImageFix"/>
<feColorMatrix in="SourceAlpha" type="matrix" values="0 0 0 0 0 0 0 0 0 0 0 0 0 0 0 0 0 0 127 0"/>
<feOffset dx="0.5" dy="0.5"/>
<feGaussianBlur stdDeviation="0.25"/>
<feColorMatrix type="matrix" values="0 0 0 0 0 0 0 0 0 0 0 0 0 0 0 0 0 0 0.25 0"/>
<feBlend mode="normal" in2="BackgroundImageFix" result="effect1_dropShadow"/>
<feBlend mode="normal" in="SourceGraphic" in2="effect1_dropShadow" result="shape"/>
</filter>
</defs>
</svg>
