<svg width="800" height="562" viewBox="0 0 800 562" fill="none" xmlns="http://www.w3.org/2000/svg">
<g id="undraw_web_developer_p3e5 1" clip-path="url(#clip0)">
<path id="left-leaf" d="M626.658 514.732C632.048 534.453 622.469 554.253 622.469 554.253C622.469 554.253 604.151 542.078 598.761 522.357C593.37 502.635 602.949 482.836 602.949 482.836C602.949 482.836 621.268 495.011 626.658 514.732Z" fill="#38D2A1"/>
<path id="center-leaf" d="M642.45 522.217C637.257 541.991 619.061 554.349 619.061 554.349C619.061 554.349 609.285 534.646 614.477 514.871C619.67 495.097 637.866 482.74 637.866 482.74C637.866 482.74 647.642 502.443 642.45 522.217Z" fill="white"/>
<path id="right-leaf" d="M634.573 518.034C620.03 532.403 618.403 554.337 618.403 554.337C618.403 554.337 640.355 552.976 654.899 538.607C669.443 524.238 671.07 502.303 671.07 502.303C671.07 502.303 649.117 503.665 634.573 518.034Z" fill="#38D2A1"/>
<g id="background">
<rect id="Rectangle 1" x="298" width="501" height="18" fill="#818181"/>
<rect id="background_2" x="298" y="19" width="501" height="308" fill="#C4C4C4"/>
</g>
<path id="Vector" d="M107.603 447.415H134.992L202.489 421.003C202.489 421.003 250.421 401.439 246.508 438.611C242.595 475.783 235.747 525.671 235.747 525.671C235.747 525.671 214.227 515.889 202.489 518.824C190.75 521.758 198.576 459.153 198.576 459.153C198.576 459.153 102.712 505.129 93.9077 499.26C85.1039 493.39 83.1475 452.306 83.1475 452.306L107.603 447.415Z" fill="#2F2E41"/>
<path id="Vector_2" opacity="0.1" d="M107.603 447.415H134.992L202.489 421.003C202.489 421.003 250.421 401.439 246.508 438.611C242.595 475.783 235.747 525.671 235.747 525.671C235.747 525.671 214.227 515.889 202.489 518.824C190.75 521.758 198.576 459.153 198.576 459.153C198.576 459.153 102.712 505.129 93.9077 499.26C85.1039 493.39 83.1475 452.306 83.1475 452.306L107.603 447.415Z" fill="black"/>
<path id="Vector_3" d="M150.755 361.64L183.903 409.265L261.181 473.826C261.181 473.826 332.59 490.456 322.808 502.194C313.026 513.933 253.355 490.456 253.355 490.456C253.355 490.456 164.339 425.894 161.404 421.003C158.469 416.112 126.189 370.136 126.189 370.136L150.755 361.64Z" fill="#DCB0B6"/>
<path id="Vector_4" d="M131.08 323.183L152.6 365.245C152.6 365.245 147.709 385.788 139.883 387.744C132.058 389.701 98.7988 362.311 98.7988 362.311L131.08 323.183Z" fill="#D0CDE1"/>
<path id="Vector_5" opacity="0.1" d="M131.08 323.183L152.6 365.245C152.6 365.245 147.709 385.788 139.883 387.744C132.058 389.701 98.7988 362.311 98.7988 362.311L131.08 323.183Z" fill="black"/>
<path id="Vector_6" d="M393.621 425.636L399.978 451.859C400.049 452.151 400.038 452.457 399.946 452.744L371.109 542.858C370.995 543.215 370.762 543.522 370.449 543.728C370.136 543.934 369.761 544.026 369.389 543.989C369.016 543.952 368.667 543.789 368.4 543.526C368.133 543.263 367.964 542.916 367.922 542.544L363.933 507.439C363.906 507.206 363.93 506.97 364.003 506.747L390.472 425.515C390.582 425.176 390.8 424.882 391.092 424.678C391.385 424.474 391.736 424.372 392.092 424.385C392.448 424.399 392.79 424.529 393.066 424.754C393.342 424.98 393.537 425.29 393.621 425.636Z" fill="#2F2E41"/>
<g id="laptop-screen">
<path id="Vector_7" d="M391.282 427.85L397.151 450.35L371.718 532.519L365.849 507.085L391.282 427.85Z" fill="white"/>
</g>
<path id="Vector_8" d="M263.137 550.126C264.115 553.061 364.871 549.148 365.849 548.17C366.702 546.945 367.423 545.633 368.001 544.257C368.92 542.301 369.762 540.344 369.762 540.344L365.849 508.67L266.072 505.129C266.072 505.129 263.577 531.971 263.069 544.257C262.942 547.358 262.942 549.539 263.137 550.126Z" fill="#2F2E41"/>
<path id="Vector_9" opacity="0.1" d="M353.132 512.955L355.088 540.344H311.069V512.955H353.132Z" fill="black"/>
<path id="Vector_10" opacity="0.1" d="M296.397 521.758L296.659 521.706L295.418 533.497H270.963V521.758H296.397Z" fill="black"/>
<path id="Vector_11" opacity="0.1" d="M263.137 550.126C264.115 553.061 364.871 549.148 365.849 548.17C366.702 546.945 367.423 545.633 368.001 544.257H263.069C262.942 547.358 262.942 549.539 263.137 550.126Z" fill="black"/>
<g id="head">
<path id="Vector_12" d="M142.818 304.597C142.818 304.597 128.145 330.03 125.21 343.725C122.276 357.42 81.191 316.335 81.191 316.335L75.8109 302.151C75.8109 302.151 114.45 284.054 111.515 269.381C108.581 254.708 142.818 304.597 142.818 304.597Z" fill="#DCB0B6"/>
<path id="Vector_13" d="M145.753 309.488C170.064 309.488 189.772 289.78 189.772 265.468C189.772 241.157 170.064 221.449 145.753 221.449C121.441 221.449 101.733 241.157 101.733 265.468C101.733 289.78 121.441 309.488 145.753 309.488Z" fill="#DCB0B6"/>
<path id="Vector_14" d="M181.864 254.395C184.86 255.731 187.831 257.312 191.088 257.699C194.345 258.087 198.055 256.95 199.596 254.054C200.428 252.49 200.524 250.651 200.562 248.879C200.68 243.508 200.292 237.701 196.888 233.544C194.721 230.898 191.559 229.23 189.317 226.649C187.71 224.8 186.641 222.558 185.49 220.395C181.128 212.205 174.671 204.333 165.697 201.971C161.95 200.985 158.019 201.034 154.145 201.088L131.546 201.407C127.889 201.459 124.175 201.519 120.674 202.577C113.4 204.776 108.104 210.893 103.254 216.743C99.6247 221.119 95.9862 225.541 93.2627 230.532C89.3579 237.814 87.3835 245.976 87.5276 254.238C87.4973 256.357 87.7709 258.469 88.34 260.511C89.0057 262.383 89.8306 264.195 90.8055 265.926C95.0435 274.25 97.5599 284.648 92.7871 292.677C101.078 289.291 109.281 284.85 114.75 277.758C117.197 274.585 119.116 270.871 122.376 268.543C125.637 266.215 130.95 266.013 133.042 269.43C133.761 270.812 134.131 272.349 134.12 273.907C134.273 276.472 134.269 279.136 135.356 281.464C136.444 283.791 139.034 285.67 141.507 284.973C145.766 283.773 145.358 277.237 148.639 274.267C151.13 272.012 154.974 272.443 158.174 271.42C161.903 270.227 164.701 266.997 166.295 263.421C167.507 260.703 167.49 253.59 169.783 252.118C172.658 250.272 179.198 253.207 181.864 254.395Z" fill="#2F2E41"/>
</g>
<path id="Vector_15" d="M150.644 380.897L190.75 433.72L286.614 505.129C286.614 505.129 356.067 519.802 340.415 530.562C324.764 541.322 279.767 520.78 279.767 520.78C279.767 520.78 182.924 468.935 162.382 447.415C141.84 425.894 103.69 389.701 103.69 389.701L150.644 380.897Z" fill="#DCB0B6"/>
<path id="Vector_16" d="M150.644 380.897L190.75 433.72L286.614 505.129C286.614 505.129 356.067 519.802 340.415 530.562C324.764 541.322 279.767 520.78 279.767 520.78C279.767 520.78 182.924 468.935 162.382 447.415C141.84 425.894 103.69 389.701 103.69 389.701L150.644 380.897Z" fill="#DCB0B6"/>
<path id="Vector_17" d="M96.8423 463.066L108.581 481.652L178.637 459.612C194.009 454.776 210.864 456.555 224.498 465.145C236.726 472.848 244.551 485.076 226.944 503.172C191.728 539.366 168.251 519.802 168.251 519.802C168.251 519.802 49.8885 575.56 30.3244 548.17C10.7603 520.78 9.7821 507.085 9.7821 507.085C9.7821 507.085 85.1039 460.131 96.8423 463.066Z" fill="#2F2E41"/>
<path id="Vector_18" d="M243.573 527.628C243.573 527.628 274.876 548.17 237.704 557.952C200.532 567.734 173.142 554.039 173.142 554.039C173.142 554.039 140.862 554.039 140.862 537.41C140.862 520.78 151.622 518.824 151.622 518.824L184.881 523.715C184.881 523.715 224.987 512.954 243.573 527.628Z" fill="#D0CDE1"/>
<path id="Vector_19" d="M72.3166 297.511C74.2969 296.983 76.3818 296.988 78.3594 297.526C84.6387 299.212 98.7152 303.675 101.733 310.466C105.646 319.27 119.341 332.965 119.341 332.965C119.341 332.965 137.927 351.551 134.014 364.267C130.101 376.984 115.428 391.657 115.428 391.657C115.428 391.657 119.341 452.306 99.7769 467.957C80.2128 483.608 72.3872 472.848 72.3872 487.521C72.3872 502.194 11.7385 548.17 0 519.802C0 519.802 5.86924 466.979 3.91283 448.393C1.98463 430.075 4.8074 315.787 72.3166 297.511Z" fill="#D0CDE1"/>
<path id="Vector_20" d="M103.69 322.204C103.69 322.204 163.36 366.224 152.6 384.809C152.6 384.809 116.406 402.417 108.581 401.439C100.755 400.461 70.4308 366.224 62.6052 363.289C54.7795 360.354 50.8667 307.531 103.69 322.204Z" fill="#D0CDE1"/>
<path id="Vector_21" d="M769.419 113.778H498.618V57.1127H769.419V113.778ZM499.811 112.585H768.226V58.3057H499.811V112.585Z" fill="#3F3D56"/>
<path id="Vector_22" d="M749.735 68.4458H480.127V123.918H749.735V68.4458Z" fill="#38D2A1"/>
<path id="Vector_23" d="M309.695 15.5084C312.001 15.5084 313.871 13.6391 313.871 11.3331C313.871 9.02704 312.001 7.15765 309.695 7.15765C307.389 7.15765 305.52 9.02704 305.52 11.3331C305.52 13.6391 307.389 15.5084 309.695 15.5084Z" fill="#FF5F56"/>
<path id="Vector_24" d="M324.011 15.5084C326.317 15.5084 328.186 13.6391 328.186 11.3331C328.186 9.02704 326.317 7.15765 324.011 7.15765C321.705 7.15765 319.835 9.02704 319.835 11.3331C319.835 13.6391 321.705 15.5084 324.011 15.5084Z" fill="#FFBD2E"/>
<path id="Vector_25" d="M338.326 15.5084C340.632 15.5084 342.502 13.6391 342.502 11.3331C342.502 9.02704 340.632 7.15765 338.326 7.15765C336.02 7.15765 334.151 9.02704 334.151 11.3331C334.151 13.6391 336.02 15.5084 338.326 15.5084Z" fill="#27C93F"/>
<path id="Vector_26" d="M800 326.87H297.766V0H800V326.87ZM298.959 325.677H798.807V1.19296H298.959V325.677Z" fill="#3F3D56"/>
<path id="Vector_27" d="M799.404 18.0941H298.362V19.2871H799.404V18.0941Z" fill="#3F3D56"/>
<path id="Vector_28" d="M310.888 14.3155C309.945 14.3155 309.022 14.0356 308.237 13.5113C307.453 12.9869 306.841 12.2417 306.48 11.3697C306.119 10.4978 306.024 9.53835 306.208 8.61271C306.392 7.68707 306.847 6.83681 307.514 6.16946C308.182 5.5021 309.032 5.04763 309.957 4.86351C310.883 4.67939 311.843 4.77389 312.714 5.13506C313.586 5.49622 314.332 6.10784 314.856 6.89257C315.38 7.67729 315.66 8.59987 315.66 9.54364C315.659 10.8088 315.156 12.0216 314.261 12.9162C313.366 13.8108 312.153 14.314 310.888 14.3155ZM310.888 5.96478C310.181 5.96478 309.489 6.17467 308.9 6.56792C308.312 6.96118 307.853 7.52012 307.582 8.17408C307.311 8.82803 307.24 9.54762 307.378 10.2418C307.516 10.9361 307.857 11.5738 308.358 12.0743C308.858 12.5748 309.496 12.9157 310.19 13.0537C310.884 13.1918 311.604 13.121 312.258 12.8501C312.912 12.5792 313.471 12.1205 313.864 11.532C314.257 10.9434 314.467 10.2515 314.467 9.54364C314.466 8.59481 314.089 7.68515 313.418 7.01422C312.747 6.34329 311.837 5.96588 310.888 5.96478Z" fill="#3F3D56"/>
<path id="Vector_29" d="M325.204 14.3155C324.26 14.3155 323.337 14.0356 322.553 13.5113C321.768 12.9869 321.156 12.2417 320.795 11.3697C320.434 10.4978 320.34 9.53835 320.524 8.61271C320.708 7.68707 321.162 6.83681 321.83 6.16946C322.497 5.5021 323.347 5.04763 324.273 4.86351C325.199 4.67939 326.158 4.77389 327.03 5.13506C327.902 5.49622 328.647 6.10784 329.171 6.89257C329.696 7.67729 329.976 8.59987 329.976 9.54364C329.974 10.8088 329.471 12.0216 328.576 12.9162C327.682 13.8108 326.469 14.314 325.204 14.3155ZM325.204 5.96478C324.496 5.96478 323.804 6.17467 323.216 6.56792C322.627 6.96118 322.168 7.52012 321.897 8.17408C321.627 8.82803 321.556 9.54762 321.694 10.2418C321.832 10.9361 322.173 11.5738 322.673 12.0743C323.174 12.5748 323.811 12.9157 324.506 13.0537C325.2 13.1918 325.919 13.121 326.573 12.8501C327.227 12.5792 327.786 12.1205 328.18 11.532C328.573 10.9434 328.783 10.2515 328.783 9.54364C328.782 8.59481 328.404 7.68515 327.733 7.01422C327.062 6.34329 326.153 5.96588 325.204 5.96478Z" fill="#3F3D56"/>
<path id="Vector_30" d="M339.519 14.3155C338.576 14.3155 337.653 14.0356 336.868 13.5113C336.083 12.9869 335.472 12.2417 335.111 11.3697C334.75 10.4978 334.655 9.53835 334.839 8.61271C335.023 7.68707 335.478 6.83681 336.145 6.16946C336.812 5.50211 337.663 5.04764 338.588 4.86351C339.514 4.67939 340.473 4.77389 341.345 5.13505C342.217 5.49622 342.963 6.10783 343.487 6.89255C344.011 7.67727 344.291 8.59986 344.291 9.54363C344.29 10.8088 343.786 12.0216 342.892 12.9162C341.997 13.8108 340.784 14.314 339.519 14.3155ZM339.519 5.96478C338.811 5.96477 338.12 6.17467 337.531 6.56792C336.942 6.96117 336.484 7.52011 336.213 8.17407C335.942 8.82802 335.871 9.54761 336.009 10.2418C336.147 10.9361 336.488 11.5738 336.989 12.0743C337.489 12.5748 338.127 12.9157 338.821 13.0537C339.515 13.1918 340.235 13.121 340.889 12.8501C341.543 12.5792 342.102 12.1205 342.495 11.532C342.888 10.9434 343.098 10.2515 343.098 9.54364C343.097 8.59481 342.72 7.68515 342.049 7.01422C341.378 6.34329 340.468 5.96588 339.519 5.96478Z" fill="#3F3D56"/>
<path id="Vector_31" d="M456.266 18.6906H455.073V326.736H456.266V18.6906Z" fill="#3F3D56"/>
<g id="Text-Bars">
<path id="Vector_32" d="M599.721 170.145H512.039V182.075H599.721V170.145Z" fill="#F2F2F2"/>
<path id="Vector_33" d="M737.507 170.145H649.825V182.075H737.507V170.145Z" fill="#F2F2F2"/>
<path id="Vector_34" d="M599.721 262.599H512.039V274.529H599.721V262.599Z" fill="#F2F2F2"/>
<path id="Vector_35" d="M737.806 215.179H512.337V227.109H737.806V215.179Z" fill="#F2F2F2"/>
</g>
<path id="Vector_36" d="M605.089 176.706H516.214V163.584H605.089V176.706ZM517.407 175.514H603.896V164.777H517.407V175.514Z" fill="#3F3D56"/>
<path id="Vector_37" d="M605.089 269.161H516.214V256.038H605.089V269.161ZM517.407 267.968H603.896V257.231H517.407V267.968Z" fill="#3F3D56"/>
<path id="Vector_38" d="M743.174 222.933H516.512V209.811H743.174V222.933ZM517.705 221.741H741.981V211.004H517.705V221.741Z" fill="#3F3D56"/>
<path id="Vector_39" d="M742.876 176.706H654V163.584H742.876V176.706ZM655.193 175.514H741.683V164.777H655.193V175.514Z" fill="#3F3D56"/>
<path id="Vector_40" d="M766.545 553.467H556.148V554.954H766.545V553.467Z" fill="#3F3D56"/>
<path id="Vector 19" d="M368.34 226.574C395.591 226.574 417.681 204.485 417.681 177.234C417.681 149.985 395.591 127.894 368.34 127.894C341.091 127.894 319 149.985 319 177.234C319 204.485 341.091 226.574 368.34 226.574Z" fill="#38D39F"/>
<path id="Vector 20" d="M385.535 118.601C381.067 118.033 376.545 118.033 372.078 118.601C362.125 119.908 352.756 124.043 345.083 130.514C337.409 136.986 331.753 145.523 328.786 155.113C327.436 159.483 326.672 164.014 326.513 168.585C326.491 169.22 326.476 169.863 326.476 170.506C326.49 184.38 332.007 197.683 341.818 207.494C351.629 217.305 364.932 222.823 378.807 222.837C379.92 222.837 381.034 222.799 382.133 222.732C384.713 222.57 387.277 222.215 389.803 221.67C401.869 219.076 412.63 212.301 420.185 202.542C427.739 192.783 431.603 180.668 431.093 168.338C430.581 156.006 425.73 144.253 417.394 135.152C409.057 126.051 397.773 120.189 385.535 118.601ZM395.186 218.635H395.178C390.964 220.073 386.577 220.946 382.133 221.229C381.034 221.304 379.92 221.341 378.807 221.341C365.329 221.325 352.408 215.964 342.878 206.434C333.348 196.904 327.987 183.984 327.971 170.506C327.971 169.863 327.986 169.22 328.008 168.585C328.522 155.45 334.097 143.024 343.565 133.906C353.034 124.789 365.662 119.688 378.807 119.67C390.85 119.671 402.502 123.947 411.687 131.737C420.872 139.528 426.993 150.325 428.96 162.208C430.926 174.089 428.611 186.284 422.425 196.618C416.24 206.952 406.587 214.754 395.186 218.635Z" fill="#3F3D56"/>
<path id="Vector 21" d="M379.554 122.661H378.059V133.127H379.554V122.661Z" fill="#3F3D56"/>
<path id="Vector 22" d="M345.503 136.146L344.446 137.203L351.847 144.604L352.904 143.546L345.503 136.146Z" fill="#3F3D56"/>
<path id="Vector 23" d="M330.961 169.758V171.254H341.427V169.758H330.961Z" fill="#3F3D56"/>
<path id="Vector 24" d="M344.446 203.809L345.504 204.866L352.904 197.466L351.847 196.409L344.446 203.809Z" fill="#3F3D56"/>
<path id="Vector 25" d="M404.709 143.546L405.766 144.604L413.167 137.203L412.11 136.146L404.709 143.546Z" fill="#3F3D56"/>
<path id="Vector 26" d="M416.185 169.758V171.254H426.652V169.758H416.185Z" fill="#3F3D56"/>
<path id="Vector 27" d="M405.766 196.408L404.709 197.465L412.11 204.866L413.167 203.809L405.766 196.408Z" fill="#3F3D56"/>
<path id="Vector 28" d="M379.554 207.885H378.059V218.351H379.554V207.885Z" fill="#3F3D56"/>
<path id="Vector 30" d="M385.535 105.466H372.079V118.923H385.535V105.466Z" fill="#3F3D56"/>
<path id="Vector 31" d="M378.807 107.709C388.716 107.709 396.749 104.864 396.749 101.354C396.749 97.845 388.716 95 378.807 95C368.897 95 360.864 97.845 360.864 101.354C360.864 104.864 368.897 107.709 378.807 107.709Z" fill="#3F3D56"/>
<path id="clock-arrow" d="M381.039 136.953H376.686V167.425H381.039V136.953Z" fill="#3F3D56"/>
</g>
<defs>
<clipPath id="clip0">
<rect width="800" height="561.474" fill="white"/>
</clipPath>
</defs>
</svg>
